<?xml version="1.0" standalone="no"?>
<svg viewBox="0 0 200 200" xmlns="http://www.w3.org/2000/svg">
  <path fill="#000000" d="M50.5,-59.2C65.1,-58.9,76.4,-43.7,73.5,-29.4C70.6,-15.1,53.4,-1.7,47.7,15.4C42,32.5,47.9,53.3,41.9,66C35.9,78.6,17.9,83.2,0.4,82.6C-17.1,82.1,-34.3,76.4,-38.8,63.3C-43.4,50.1,-35.4,29.5,-39.7,13.5C-44,-2.5,-60.7,-13.8,-61.3,-22.4C-61.9,-30.9,-46.4,-36.8,-33.5,-37.6C-20.6,-38.5,-10.3,-34.4,3.8,-39.6C17.9,-44.9,35.9,-59.5,50.5,-59.2Z" transform="translate(100 100)" />
</svg>
